<svg xmlns="http://www.w3.org/2000/svg" width="640" height="300" viewBox="0 0 640 300" role="img"><title>零点街区 · 弹壳特攻队 3D</title><defs><linearGradient id="bg" x2="1" y2="1"><stop stop-color="hsl(333 61% 35%)"/><stop offset="1" stop-color="hsl(14 67% 19%)"/></linearGradient><radialGradient id="light"><stop stop-color="hsl(11 83% 71%)" stop-opacity=".42"/><stop offset="1" stop-color="hsl(11 83% 71%)" stop-opacity="0"/></radialGradient></defs><rect width="640" height="300" fill="url(#bg)"/><circle cx="495" cy="143" r="228" fill="url(#light)"/><path d="M0 262C124 204 186 318 349 247C463 197 552 233 640 205V300H0Z" fill="white" opacity=".06"/><circle cx="517" cy="113" r="6" fill="white" opacity=".35"/><circle cx="450" cy="123" r="3" fill="white" opacity=".35"/><circle cx="600" cy="187" r="3" fill="white" opacity=".35"/><circle cx="563" cy="207" r="2" fill="white" opacity=".35"/><circle cx="502" cy="163" r="91" fill="none" stroke="hsl(11 83% 71%)" stroke-width="4" opacity=".55"/><circle cx="502" cy="163" r="56" fill="none" stroke="hsl(51 86% 75%)" stroke-width="18" opacity=".82"/><path d="M489 81L530 148H504L529 237L454 153H489Z" fill="white" opacity=".92"/><rect x="37" y="62" width="52" height="5" rx="3" fill="white" opacity=".69"/><g font-family="Inter,system-ui,-apple-system,BlinkMacSystemFont,Noto Sans SC,Microsoft YaHei,sans-serif"><text x="38" y="150" fill="white" font-size="40" font-weight="800" letter-spacing=".2">零点街区 ·</text><text x="38" y="203" fill="white" font-size="40" font-weight="800" letter-spacing=".2">弹壳特攻队 3D</text></g></svg>
