<svg xmlns="http://www.w3.org/2000/svg" width="640" height="300" viewBox="0 0 640 300" role="img"><title>ASCII DISTRICT</title><defs><linearGradient id="bg" x2="1" y2="1"><stop stop-color="hsl(315 61% 35%)"/><stop offset="1" stop-color="hsl(356 67% 19%)"/></linearGradient><radialGradient id="light"><stop stop-color="hsl(353 83% 71%)" stop-opacity=".42"/><stop offset="1" stop-color="hsl(353 83% 71%)" stop-opacity="0"/></radialGradient></defs><rect width="640" height="300" fill="url(#bg)"/><circle cx="494" cy="130" r="228" fill="url(#light)"/><path d="M0 262C124 204 186 318 349 247C463 197 552 233 640 205V300H0Z" fill="white" opacity=".06"/><circle cx="619" cy="99" r="3" fill="white" opacity=".35"/><circle cx="603" cy="91" r="5" fill="white" opacity=".35"/><circle cx="498" cy="73" r="4" fill="white" opacity=".35"/><circle cx="417" cy="250" r="4" fill="white" opacity=".35"/><circle cx="489" cy="162" r="91" fill="none" stroke="hsl(353 83% 71%)" stroke-width="4" opacity=".55"/><circle cx="489" cy="162" r="56" fill="none" stroke="hsl(33 86% 75%)" stroke-width="18" opacity=".82"/><path d="M476 80L517 147H491L516 236L441 152H476Z" fill="white" opacity=".92"/><rect x="37" y="62" width="52" height="5" rx="3" fill="white" opacity=".69"/><g font-family="Inter,system-ui,-apple-system,BlinkMacSystemFont,Noto Sans SC,Microsoft YaHei,sans-serif"><text x="38" y="173" fill="white" font-size="40" font-weight="800" letter-spacing=".2">ASCII DISTRICT</text></g></svg>
