<svg xmlns="http://www.w3.org/2000/svg" width="640" height="300" viewBox="0 0 640 300" role="img"><title>AGI of Empires — The Compute Wars</title><defs><linearGradient id="bg" x2="1" y2="1"><stop stop-color="hsl(231 61% 35%)"/><stop offset="1" stop-color="hsl(272 67% 19%)"/></linearGradient><radialGradient id="light"><stop stop-color="hsl(269 83% 71%)" stop-opacity=".42"/><stop offset="1" stop-color="hsl(269 83% 71%)" stop-opacity="0"/></radialGradient></defs><rect width="640" height="300" fill="url(#bg)"/><circle cx="477" cy="97" r="228" fill="url(#light)"/><path d="M0 262C124 204 186 318 349 247C463 197 552 233 640 205V300H0Z" fill="white" opacity=".06"/><circle cx="551" cy="155" r="6" fill="white" opacity=".35"/><circle cx="415" cy="152" r="5" fill="white" opacity=".35"/><circle cx="427" cy="102" r="4" fill="white" opacity=".35"/><circle cx="550" cy="191" r="3" fill="white" opacity=".35"/><path d="M495 61L589 112V213L495 264L401 213V112Z" fill="hsl(269 83% 71%)" opacity=".8"/><path d="M495 97L556 131V193L495 228L434 193V131Z" fill="none" stroke="white" stroke-width="5" opacity=".84"/><path d="M495 98V228M435 131L495 164L555 131" stroke="hsl(309 86% 75%)" stroke-width="5" fill="none" opacity=".9"/><rect x="37" y="62" width="52" height="5" rx="3" fill="white" opacity=".69"/><g font-family="Inter,system-ui,-apple-system,BlinkMacSystemFont,Noto Sans SC,Microsoft YaHei,sans-serif"><text x="38" y="150" fill="white" font-size="40" font-weight="800" letter-spacing=".2">AGI of Empires</text><text x="38" y="203" fill="white" font-size="40" font-weight="800" letter-spacing=".2">— The Compute…</text></g></svg>
