<svg xmlns="http://www.w3.org/2000/svg" width="640" height="300" viewBox="0 0 640 300" role="img"><title>Coin Pusher Roguelite: Mintfall</title><defs><linearGradient id="bg" x2="1" y2="1"><stop stop-color="hsl(227 61% 35%)"/><stop offset="1" stop-color="hsl(268 67% 19%)"/></linearGradient><radialGradient id="light"><stop stop-color="hsl(265 83% 71%)" stop-opacity=".42"/><stop offset="1" stop-color="hsl(265 83% 71%)" stop-opacity="0"/></radialGradient></defs><rect width="640" height="300" fill="url(#bg)"/><circle cx="474" cy="120" r="228" fill="url(#light)"/><path d="M0 262C124 204 186 318 349 247C463 197 552 233 640 205V300H0Z" fill="white" opacity=".06"/><circle cx="407" cy="132" r="4" fill="white" opacity=".35"/><circle cx="509" cy="53" r="4" fill="white" opacity=".35"/><circle cx="397" cy="216" r="2" fill="white" opacity=".35"/><circle cx="409" cy="263" r="5" fill="white" opacity=".35"/><path d="M479 55L573 106V207L479 258L385 207V106Z" fill="hsl(265 83% 71%)" opacity=".8"/><path d="M479 91L540 125V187L479 222L418 187V125Z" fill="none" stroke="white" stroke-width="5" opacity=".84"/><path d="M479 92V222M419 125L479 158L539 125" stroke="hsl(305 86% 75%)" stroke-width="5" fill="none" opacity=".9"/><rect x="37" y="62" width="52" height="5" rx="3" fill="white" opacity=".69"/><g font-family="Inter,system-ui,-apple-system,BlinkMacSystemFont,Noto Sans SC,Microsoft YaHei,sans-serif"><text x="38" y="150" fill="white" font-size="40" font-weight="800" letter-spacing=".2">Coin Pusher</text><text x="38" y="203" fill="white" font-size="40" font-weight="800" letter-spacing=".2">Roguelite:…</text></g></svg>
