<svg xmlns="http://www.w3.org/2000/svg" width="640" height="300" viewBox="0 0 640 300" role="img"><title>血裔决斗Ⅱ / Nightborn Clash</title><defs><linearGradient id="bg" x2="1" y2="1"><stop stop-color="hsl(328 61% 35%)"/><stop offset="1" stop-color="hsl(9 67% 19%)"/></linearGradient><radialGradient id="light"><stop stop-color="hsl(6 83% 71%)" stop-opacity=".42"/><stop offset="1" stop-color="hsl(6 83% 71%)" stop-opacity="0"/></radialGradient></defs><rect width="640" height="300" fill="url(#bg)"/><circle cx="509" cy="129" r="228" fill="url(#light)"/><path d="M0 262C124 204 186 318 349 247C463 197 552 233 640 205V300H0Z" fill="white" opacity=".06"/><circle cx="451" cy="154" r="4" fill="white" opacity=".35"/><circle cx="591" cy="146" r="6" fill="white" opacity=".35"/><circle cx="604" cy="214" r="4" fill="white" opacity=".35"/><circle cx="602" cy="64" r="6" fill="white" opacity=".35"/><circle cx="488" cy="142" r="91" fill="none" stroke="hsl(6 83% 71%)" stroke-width="4" opacity=".55"/><circle cx="488" cy="142" r="56" fill="none" stroke="hsl(46 86% 75%)" stroke-width="18" opacity=".82"/><path d="M475 60L516 127H490L515 216L440 132H475Z" fill="white" opacity=".92"/><rect x="37" y="62" width="52" height="5" rx="3" fill="white" opacity=".69"/><g font-family="Inter,system-ui,-apple-system,BlinkMacSystemFont,Noto Sans SC,Microsoft YaHei,sans-serif"><text x="38" y="150" fill="white" font-size="40" font-weight="800" letter-spacing=".2">血裔决斗Ⅱ /</text><text x="38" y="203" fill="white" font-size="40" font-weight="800" letter-spacing=".2">Nightborn Clash</text></g></svg>
