<svg xmlns="http://www.w3.org/2000/svg" width="640" height="300" viewBox="0 0 640 300" role="img"><title>DEAD END — Oakridge</title><defs><linearGradient id="bg" x2="1" y2="1"><stop stop-color="hsl(342 61% 35%)"/><stop offset="1" stop-color="hsl(23 67% 19%)"/></linearGradient><radialGradient id="light"><stop stop-color="hsl(20 83% 71%)" stop-opacity=".42"/><stop offset="1" stop-color="hsl(20 83% 71%)" stop-opacity="0"/></radialGradient></defs><rect width="640" height="300" fill="url(#bg)"/><circle cx="479" cy="117" r="228" fill="url(#light)"/><path d="M0 262C124 204 186 318 349 247C463 197 552 233 640 205V300H0Z" fill="white" opacity=".06"/><circle cx="556" cy="54" r="5" fill="white" opacity=".35"/><circle cx="563" cy="241" r="3" fill="white" opacity=".35"/><circle cx="450" cy="51" r="3" fill="white" opacity=".35"/><circle cx="568" cy="44" r="3" fill="white" opacity=".35"/><circle cx="501" cy="142" r="91" fill="none" stroke="hsl(20 83% 71%)" stroke-width="4" opacity=".55"/><circle cx="501" cy="142" r="56" fill="none" stroke="hsl(60 86% 75%)" stroke-width="18" opacity=".82"/><path d="M488 60L529 127H503L528 216L453 132H488Z" fill="white" opacity=".92"/><rect x="37" y="62" width="52" height="5" rx="3" fill="white" opacity=".69"/><g font-family="Inter,system-ui,-apple-system,BlinkMacSystemFont,Noto Sans SC,Microsoft YaHei,sans-serif"><text x="38" y="150" fill="white" font-size="40" font-weight="800" letter-spacing=".2">DEAD END —</text><text x="38" y="203" fill="white" font-size="40" font-weight="800" letter-spacing=".2">Oakridge</text></g></svg>
