<svg xmlns="http://www.w3.org/2000/svg" width="640" height="300" viewBox="0 0 640 300" role="img"><title>Europe, the Game</title><defs><linearGradient id="bg" x2="1" y2="1"><stop stop-color="hsl(280 61% 35%)"/><stop offset="1" stop-color="hsl(321 67% 19%)"/></linearGradient><radialGradient id="light"><stop stop-color="hsl(318 83% 71%)" stop-opacity=".42"/><stop offset="1" stop-color="hsl(318 83% 71%)" stop-opacity="0"/></radialGradient></defs><rect width="640" height="300" fill="url(#bg)"/><circle cx="471" cy="156" r="228" fill="url(#light)"/><path d="M0 262C124 204 186 318 349 247C463 197 552 233 640 205V300H0Z" fill="white" opacity=".06"/><circle cx="404" cy="106" r="5" fill="white" opacity=".35"/><circle cx="435" cy="29" r="2" fill="white" opacity=".35"/><circle cx="564" cy="44" r="4" fill="white" opacity=".35"/><circle cx="446" cy="77" r="6" fill="white" opacity=".35"/><circle cx="490" cy="160" r="96" fill="none" stroke="hsl(318 83% 71%)" stroke-width="3" opacity=".65"/><path d="M397 229L448 125L488 186L527 93L587 229Z" fill="hsl(318 83% 71%)" opacity=".82"/><path d="M527 93L544 133L513 127Z" fill="white" opacity=".9"/><circle cx="448" cy="97" r="8" fill="hsl(358 86% 75%)"/><rect x="37" y="62" width="52" height="5" rx="3" fill="white" opacity=".69"/><g font-family="Inter,system-ui,-apple-system,BlinkMacSystemFont,Noto Sans SC,Microsoft YaHei,sans-serif"><text x="38" y="173" fill="white" font-size="40" font-weight="800" letter-spacing=".2">Europe, the Game</text></g></svg>
