<svg xmlns="http://www.w3.org/2000/svg" width="640" height="300" viewBox="0 0 640 300" role="img"><title>Anna &amp; Leo · The Starstone Adventure</title><defs><linearGradient id="bg" x2="1" y2="1"><stop stop-color="hsl(286 61% 35%)"/><stop offset="1" stop-color="hsl(327 67% 19%)"/></linearGradient><radialGradient id="light"><stop stop-color="hsl(324 83% 71%)" stop-opacity=".42"/><stop offset="1" stop-color="hsl(324 83% 71%)" stop-opacity="0"/></radialGradient></defs><rect width="640" height="300" fill="url(#bg)"/><circle cx="473" cy="96" r="228" fill="url(#light)"/><path d="M0 262C124 204 186 318 349 247C463 197 552 233 640 205V300H0Z" fill="white" opacity=".06"/><circle cx="450" cy="73" r="4" fill="white" opacity=".35"/><circle cx="407" cy="115" r="3" fill="white" opacity=".35"/><circle cx="415" cy="157" r="2" fill="white" opacity=".35"/><circle cx="399" cy="133" r="2" fill="white" opacity=".35"/><circle cx="480" cy="151" r="96" fill="none" stroke="hsl(324 83% 71%)" stroke-width="3" opacity=".65"/><path d="M387 220L438 116L478 177L517 84L577 220Z" fill="hsl(324 83% 71%)" opacity=".82"/><path d="M517 84L534 124L503 118Z" fill="white" opacity=".9"/><circle cx="438" cy="88" r="8" fill="hsl(4 86% 75%)"/><rect x="37" y="62" width="52" height="5" rx="3" fill="white" opacity=".69"/><g font-family="Inter,system-ui,-apple-system,BlinkMacSystemFont,Noto Sans SC,Microsoft YaHei,sans-serif"><text x="38" y="150" fill="white" font-size="40" font-weight="800" letter-spacing=".2">Anna &amp; Leo ·</text><text x="38" y="203" fill="white" font-size="40" font-weight="800" letter-spacing=".2">The Starstone…</text></g></svg>
