<svg xmlns="http://www.w3.org/2000/svg" width="640" height="300" viewBox="0 0 640 300" role="img"><title>Astral War</title><defs><linearGradient id="bg" x2="1" y2="1"><stop stop-color="hsl(327 61% 35%)"/><stop offset="1" stop-color="hsl(8 67% 19%)"/></linearGradient><radialGradient id="light"><stop stop-color="hsl(5 83% 71%)" stop-opacity=".42"/><stop offset="1" stop-color="hsl(5 83% 71%)" stop-opacity="0"/></radialGradient></defs><rect width="640" height="300" fill="url(#bg)"/><circle cx="503" cy="104" r="228" fill="url(#light)"/><path d="M0 262C124 204 186 318 349 247C463 197 552 233 640 205V300H0Z" fill="white" opacity=".06"/><circle cx="469" cy="186" r="5" fill="white" opacity=".35"/><circle cx="511" cy="65" r="4" fill="white" opacity=".35"/><circle cx="517" cy="52" r="6" fill="white" opacity=".35"/><circle cx="414" cy="168" r="3" fill="white" opacity=".35"/><circle cx="502" cy="146" r="91" fill="none" stroke="hsl(5 83% 71%)" stroke-width="4" opacity=".55"/><circle cx="502" cy="146" r="56" fill="none" stroke="hsl(45 86% 75%)" stroke-width="18" opacity=".82"/><path d="M489 64L530 131H504L529 220L454 136H489Z" fill="white" opacity=".92"/><rect x="37" y="62" width="52" height="5" rx="3" fill="white" opacity=".69"/><g font-family="Inter,system-ui,-apple-system,BlinkMacSystemFont,Noto Sans SC,Microsoft YaHei,sans-serif"><text x="38" y="173" fill="white" font-size="40" font-weight="800" letter-spacing=".2">Astral War</text></g></svg>
