<svg xmlns="http://www.w3.org/2000/svg" width="640" height="300" viewBox="0 0 640 300" role="img"><title>DRONE.IO — Proving Grounds</title><defs><linearGradient id="bg" x2="1" y2="1"><stop stop-color="hsl(335 61% 35%)"/><stop offset="1" stop-color="hsl(16 67% 19%)"/></linearGradient><radialGradient id="light"><stop stop-color="hsl(13 83% 71%)" stop-opacity=".42"/><stop offset="1" stop-color="hsl(13 83% 71%)" stop-opacity="0"/></radialGradient></defs><rect width="640" height="300" fill="url(#bg)"/><circle cx="476" cy="108" r="228" fill="url(#light)"/><path d="M0 262C124 204 186 318 349 247C463 197 552 233 640 205V300H0Z" fill="white" opacity=".06"/><circle cx="417" cy="260" r="2" fill="white" opacity=".35"/><circle cx="402" cy="142" r="2" fill="white" opacity=".35"/><circle cx="498" cy="248" r="6" fill="white" opacity=".35"/><circle cx="573" cy="99" r="2" fill="white" opacity=".35"/><circle cx="481" cy="149" r="91" fill="none" stroke="hsl(13 83% 71%)" stroke-width="4" opacity=".55"/><circle cx="481" cy="149" r="56" fill="none" stroke="hsl(53 86% 75%)" stroke-width="18" opacity=".82"/><path d="M468 67L509 134H483L508 223L433 139H468Z" fill="white" opacity=".92"/><rect x="37" y="62" width="52" height="5" rx="3" fill="white" opacity=".69"/><g font-family="Inter,system-ui,-apple-system,BlinkMacSystemFont,Noto Sans SC,Microsoft YaHei,sans-serif"><text x="38" y="150" fill="white" font-size="40" font-weight="800" letter-spacing=".2">DRONE.IO —</text><text x="38" y="203" fill="white" font-size="40" font-weight="800" letter-spacing=".2">Proving Grounds</text></g></svg>
